<?xml version="1.0" encoding="utf-8"?><svg viewBox="0 0 502.66 502.66" xmlns="http://www.w3.org/2000/svg" xmlns:xlink="http://www.w3.org/1999/xlink"><style>:root>svg{display:none}:root>svg:target{display:block}</style><svg viewBox="0 0 502.664 502.664" id="icon" xmlns="http://www.w3.org/2000/svg"><path d="M153.821 358.226L0 274.337v-46.463l153.821-83.414v54.574L46.636 250.523l107.185 53.431v54.272zm26.273 29.358L282.103 115.08h32.227L212.084 387.584h-31.99zm168.749-29.358v-54.272l107.164-52.999-107.164-52.59v-53.927l153.821 83.522v46.183l-153.821 84.083z"/></svg><svg id="logo" viewBox="0 0 410.31 280.82" xmlns="http://www.w3.org/2000/svg"><defs><style>.bcls-2{stroke:#1d1d1b;stroke-miterlimit:10;fill:#47ac34}</style></defs><path d="M409.81 91.71v-44H302.96v-.32h-44v232.93h44V179.18h106.85v-44H302.96V91.71h106.85z"/><path class="bcls-2" d="M232.12 176.5V.5h-44v220h100.11v-44h-56.11z"/><path class="bcls-2" d="M259.27 329.16l46.71.31-73.37-173.82h-59.46L104 328.12l45.34.3 16-40h76.69zM183 244.43l19.73-49.19 20.76 49.19z" transform="translate(-103.27 -109.25)"/></svg><svg viewBox="0 0 50 50" id="telegram" xmlns="http://www.w3.org/2000/svg"><path d="M50 25c0 13.807-11.193 25-25 25S0 38.807 0 25 11.193 0 25 0s25 11.193 25 25zm-33.259-2.29c-2.504 1.093-5.077 2.217-7.43 3.513-1.229.9.404 1.536 1.936 2.133.244.095.485.188.711.282.189.058.38.12.575.181 1.703.543 3.603 1.148 5.257.238 2.718-1.561 5.282-3.366 7.844-5.169.84-.59 1.679-1.181 2.523-1.763l.133-.086c.72-.466 2.338-1.515 1.74-.07-1.416 1.547-2.932 2.917-4.456 4.294-1.027.929-2.057 1.86-3.064 2.852-.876.712-1.786 2.144-.805 3.141a445.21 445.21 0 006.85 4.67c.747.502 1.494 1.004 2.239 1.507 1.262 1.008 3.236.193 3.513-1.383l.372-2.173c.685-4.005 1.37-8.012 1.975-12.03.082-.63.176-1.26.269-1.89.226-1.529.453-3.059.523-4.595-.182-1.534-2.041-1.197-3.076-.852-5.318 2.024-10.582 4.197-15.826 6.41-.594.262-1.197.525-1.803.79z"/></svg><svg viewBox="0 0 50 50" id="vk-2" xmlns="http://www.w3.org/2000/svg"><g clip-path="url(#da)"><path d="M25 50c13.807 0 25-11.193 25-25S38.807 0 25 0 0 11.193 0 25s11.193 25 25 25z"/><path fill-rule="evenodd" clip-rule="evenodd" d="M24.056 35.965h1.962s.593-.065.895-.392c.279-.299.27-.861.27-.861s-.038-2.633 1.183-3.021c1.205-.382 2.752 2.545 4.391 3.67 1.24.852 2.182.665 2.182.665l4.384-.061s2.294-.142 1.206-1.945c-.089-.147-.633-1.333-3.26-3.771-2.748-2.551-2.38-2.139.931-6.552 2.017-2.688 2.823-4.329 2.571-5.031-.24-.67-1.723-.493-1.723-.493l-4.936.03s-.366-.049-.638.113c-.265.16-.435.53-.435.53s-.782 2.08-1.824 3.849c-2.198 3.732-3.076 3.929-3.436 3.697-.835-.54-.627-2.17-.627-3.327 0-3.617.55-5.125-1.068-5.516-.536-.13-.931-.215-2.303-.229-1.761-.018-3.252.006-4.096.42-.562.274-.995.887-.731.922.326.044 1.065.2 1.457.733.505.688.488 2.233.488 2.233s.29 4.258-.679 4.787c-.665.363-1.578-.378-3.538-3.764-1.004-1.734-1.762-3.652-1.762-3.652s-.146-.358-.406-.55c-.317-.232-.759-.306-.759-.306l-4.69.031s-.705.02-.963.326c-.23.272-.018.835-.018.835s3.672 8.592 7.83 12.921c3.812 3.97 8.142 3.709 8.142 3.709z"/></g><defs><clipPath id="da"><path d="M0 0h50v50H0z"/></clipPath></defs></svg><svg viewBox="0 0 100 100" id="vkk" xmlns="http://www.w3.org/2000/svg"><path d="M50 3.84C24.506 3.84 3.84 24.506 3.84 50S24.506 96.16 50 96.16 96.16 75.494 96.16 50 75.494 3.84 50 3.84zm24.808 63.677c-1.97 1.232-9.975 1.599-11.913.191-1.063-.772-2.035-1.738-2.958-2.658-.646-.643-1.379-.955-1.934-1.653-.453-.571-.764-1.245-1.241-1.809-.805-.946-2.044-1.751-3.024-.595-1.476 1.739.232 5.154-1.736 6.453-.66.436-1.326.562-2.151.5l-1.827.083c-1.073.021-2.773.031-3.994-.189-1.362-.246-2.487-.99-3.719-1.536-2.338-1.037-4.565-2.45-6.26-4.407-4.613-5.33-10.809-12.66-13.216-19.361-.495-1.377-1.803-4.104-.563-5.285 1.686-1.225 9.961-1.57 11.252.324.524.77.855 1.896 1.226 2.769.462 1.088.712 2.113 1.434 3.076.639.854 1.11 1.713 1.604 2.649.555 1.051 1.079 2.059 1.754 3.026.458.658 1.669 1.967 2.434 2.064 1.868.239 1.752-4.3 1.613-5.408a21.405 21.405 0 01-.132-3.284c.03-.924.113-2.226-.434-2.98-.892-1.23-2.879-.31-3.034-1.963.328-.469.259-.885 2.45-1.607 1.726-.567 2.841-.549 3.979-.458 2.32.186 4.78-.442 7.02.31 2.14.721 1.809 3.762 1.737 5.584-.097 2.487.007 4.915 0 7.44-.003 1.149-.049 2.268 1.353 2.174 1.314-.087 1.448-1.193 2.075-2.105.872-1.272 1.673-2.562 2.561-3.829 1.197-1.713 1.559-3.638 2.686-5.393.403-.627.75-1.963 1.371-2.459.47-.377 1.363-.18 1.932-.18h1.353c1.035 0 2.091-.008 3.155.029 1.532.053 3.248-.299 4.767-.084 6.555.925-8.239 14.938-7.469 17.44.532 1.728 3.907 3.659 5.125 5.074 1.617 1.885 6.595 5.632 2.724 8.057z"/></svg><svg viewBox="0 0 50 50" id="vvk" xmlns="http://www.w3.org/2000/svg"><path d="M50 3.84C24.506 3.84 3.84 24.506 3.84 50S24.506 96.16 50 96.16 96.16 75.494 96.16 50 75.494 3.84 50 3.84zm24.808 63.677c-1.97 1.232-9.975 1.599-11.913.191-1.063-.772-2.035-1.738-2.958-2.658-.646-.643-1.379-.955-1.934-1.653-.453-.571-.764-1.245-1.241-1.809-.805-.946-2.044-1.751-3.024-.595-1.476 1.739.232 5.154-1.736 6.453-.66.436-1.326.562-2.151.5l-1.827.083c-1.073.021-2.773.031-3.994-.189-1.362-.246-2.487-.99-3.719-1.536-2.338-1.037-4.565-2.45-6.26-4.407-4.613-5.33-10.809-12.66-13.216-19.361-.495-1.377-1.803-4.104-.563-5.285 1.686-1.225 9.961-1.57 11.252.324.524.77.855 1.896 1.226 2.769.462 1.088.712 2.113 1.434 3.076.639.854 1.11 1.713 1.604 2.649.555 1.051 1.079 2.059 1.754 3.026.458.658 1.669 1.967 2.434 2.064 1.868.239 1.752-4.3 1.613-5.408a21.405 21.405 0 01-.132-3.284c.03-.924.113-2.226-.434-2.98-.892-1.23-2.879-.31-3.034-1.963.328-.469.259-.885 2.45-1.607 1.726-.567 2.841-.549 3.979-.458 2.32.186 4.78-.442 7.02.31 2.14.721 1.809 3.762 1.737 5.584-.097 2.487.007 4.915 0 7.44-.003 1.149-.049 2.268 1.353 2.174 1.314-.087 1.448-1.193 2.075-2.105.872-1.272 1.673-2.562 2.561-3.829 1.197-1.713 1.559-3.638 2.686-5.393.403-.627.75-1.963 1.371-2.459.47-.377 1.363-.18 1.932-.18h1.353c1.035 0 2.091-.008 3.155.029 1.532.053 3.248-.299 4.767-.084 6.555.925-8.239 14.938-7.469 17.44.532 1.728 3.907 3.659 5.125 5.074 1.617 1.885 6.595 5.632 2.724 8.057z"/></svg><svg viewBox="0 0 50 50" id="what" xmlns="http://www.w3.org/2000/svg"><path d="M23.788.029C10.583.658.162 11.655.202 24.875a24.69 24.69 0 002.7 11.185L.268 48.84a.965.965 0 001.167 1.133l12.523-2.966a24.682 24.682 0 0010.655 2.586c13.497.206 24.751-10.51 25.172-24.002C50.236 11.129 38.3-.662 23.788.029zM38.73 38.528A19.29 19.29 0 0125 44.215a19.21 19.21 0 01-8.642-2.025l-1.744-.869-7.677 1.82 1.616-7.846-.86-1.683a19.2 19.2 0 01-2.11-8.814 19.29 19.29 0 015.687-13.73A19.452 19.452 0 0125 5.381a19.29 19.29 0 0113.73 5.687 19.29 19.29 0 015.687 13.73c0 5.14-2.053 10.095-5.687 13.73z"/><path d="M37.035 30.176l-4.803-1.38a1.79 1.79 0 00-1.772.467l-1.175 1.197a1.75 1.75 0 01-1.902.402c-2.272-.92-7.052-5.17-8.273-7.296a1.75 1.75 0 01.139-1.939l1.025-1.327a1.79 1.79 0 00.221-1.818l-2.02-4.571a1.791 1.791 0 00-2.798-.64c-1.34 1.133-2.931 2.856-3.124 4.765-.341 3.366 1.102 7.608 6.56 12.702 6.305 5.885 11.355 6.663 14.642 5.866 1.865-.451 3.355-2.262 4.296-3.745a1.791 1.791 0 00-1.016-2.683z"/></svg></svg>