<?xml version="1.0" encoding="utf-8"?><svg viewBox="0 0 502.66 502.66" xmlns="http://www.w3.org/2000/svg" xmlns:xlink="http://www.w3.org/1999/xlink"><style>:root>svg{display:none}:root>svg:target{display:block}</style><svg viewBox="0 0 502.664 502.664" id="icon" xmlns="http://www.w3.org/2000/svg"><path d="M153.821 358.226L0 274.337v-46.463l153.821-83.414v54.574L46.636 250.523l107.185 53.431v54.272zm26.273 29.358L282.103 115.08h32.227L212.084 387.584h-31.99zm168.749-29.358v-54.272l107.164-52.999-107.164-52.59v-53.927l153.821 83.522v46.183l-153.821 84.083z"/></svg><svg id="logo" viewBox="0 0 410.31 280.82" xmlns="http://www.w3.org/2000/svg"><defs><style>.bcls-2{stroke:#1d1d1b;stroke-miterlimit:10;fill:#47ac34}</style></defs><path d="M409.81 91.71v-44H302.96v-.32h-44v232.93h44V179.18h106.85v-44H302.96V91.71h106.85z"/><path class="bcls-2" d="M232.12 176.5V.5h-44v220h100.11v-44h-56.11z"/><path class="bcls-2" d="M259.27 329.16l46.71.31-73.37-173.82h-59.46L104 328.12l45.34.3 16-40h76.69zM183 244.43l19.73-49.19 20.76 49.19z" transform="translate(-103.27 -109.25)"/></svg><svg viewBox="0 0 50 50" id="telegram" xmlns="http://www.w3.org/2000/svg"><path d="M50 25c0 13.807-11.193 25-25 25S0 38.807 0 25 11.193 0 25 0s25 11.193 25 25zm-33.259-2.29c-2.504 1.093-5.077 2.217-7.43 3.513-1.229.9.404 1.536 1.936 2.133.244.095.485.188.711.282.189.058.38.12.575.181 1.703.543 3.603 1.148 5.257.238 2.718-1.561 5.282-3.366 7.844-5.169.84-.59 1.679-1.181 2.523-1.763l.133-.086c.72-.466 2.338-1.515 1.74-.07-1.416 1.547-2.932 2.917-4.456 4.294-1.027.929-2.057 1.86-3.064 2.852-.876.712-1.786 2.144-.805 3.141a445.21 445.21 0 006.85 4.67c.747.502 1.494 1.004 2.239 1.507 1.262 1.008 3.236.193 3.513-1.383l.372-2.173c.685-4.005 1.37-8.012 1.975-12.03.082-.63.176-1.26.269-1.89.226-1.529.453-3.059.523-4.595-.182-1.534-2.041-1.197-3.076-.852-5.318 2.024-10.582 4.197-15.826 6.41-.594.262-1.197.525-1.803.79z"/></svg><svg viewBox="0 0 50 50" id="vk" xmlns="http://www.w3.org/2000/svg"><rect width="18.789" height="18.789" x="141.656" y="14.524" rx=".115" ry=".098" transform="translate(-.093 -.03)"/><path d="M25 0C11.193 0 0 11.193 0 25s11.193 25 25 25 25-11.193 25-25S38.807 0 25 0zm-2.484 17.32c.4-.006.825-.004 1.265 0 1.372.014 1.766.1 2.303.229 1.617.39 1.068 1.899 1.068 5.515 0 1.158-.208 2.788.627 3.329.36.231 1.238.035 3.436-3.698 1.042-1.768 1.824-3.85 1.824-3.85s.17-.37.436-.529c.271-.162.636-.113.636-.113l4.936-.03s1.484-.176 1.724.493c.252.703-.555 2.344-2.572 5.031-3.31 4.413-3.678 4-.93 6.551 2.627 2.438 3.171 3.624 3.26 3.772 1.088 1.803-1.207 1.945-1.207 1.945l-4.383.06s-.941.188-2.181-.664c-1.64-1.125-3.186-4.051-4.39-3.67-1.223.388-1.184 3.02-1.184 3.02s.009.564-.27.863c-.303.326-.896.39-.896.39h-1.961s-4.33.261-8.143-3.708c-4.158-4.33-7.83-12.92-7.83-12.92s-.212-.564.018-.836c.258-.306.962-.326.962-.326l4.692-.031s.441.074.758.306c.26.192.406.551.406.551s.758 1.916 1.762 3.65c1.96 3.386 2.873 4.127 3.539 3.764.969-.529.677-4.785.677-4.785s.018-1.546-.488-2.234c-.392-.534-1.13-.69-1.457-.733-.264-.035.171-.649.733-.924.633-.31 1.628-.4 2.83-.418z"/></svg><svg viewBox="0 0 50 50" id="what" xmlns="http://www.w3.org/2000/svg"><path d="M23.788.029C10.583.658.162 11.655.202 24.875a24.69 24.69 0 002.7 11.185L.268 48.84a.965.965 0 001.167 1.133l12.523-2.966a24.682 24.682 0 0010.655 2.586c13.497.206 24.751-10.51 25.172-24.002C50.236 11.129 38.3-.662 23.788.029zM38.73 38.528A19.29 19.29 0 0125 44.215a19.21 19.21 0 01-8.642-2.025l-1.744-.869-7.677 1.82 1.616-7.846-.86-1.683a19.2 19.2 0 01-2.11-8.814 19.29 19.29 0 015.687-13.73A19.452 19.452 0 0125 5.381a19.29 19.29 0 0113.73 5.687 19.29 19.29 0 015.687 13.73c0 5.14-2.053 10.095-5.687 13.73z"/><path d="M37.035 30.176l-4.803-1.38a1.79 1.79 0 00-1.772.467l-1.175 1.197a1.75 1.75 0 01-1.902.402c-2.272-.92-7.052-5.17-8.273-7.296a1.75 1.75 0 01.139-1.939l1.025-1.327a1.79 1.79 0 00.221-1.818l-2.02-4.571a1.791 1.791 0 00-2.798-.64c-1.34 1.133-2.931 2.856-3.124 4.765-.341 3.366 1.102 7.608 6.56 12.702 6.305 5.885 11.355 6.663 14.642 5.866 1.865-.451 3.355-2.262 4.296-3.745a1.791 1.791 0 00-1.016-2.683z"/></svg></svg>