<?xml version="1.0" encoding="utf-8"?><svg viewBox="0 0 502.66 502.66" xmlns="http://www.w3.org/2000/svg" xmlns:xlink="http://www.w3.org/1999/xlink"><style>:root>svg{display:none}:root>svg:target{display:block}</style><svg viewBox="0 0 502.664 502.664" id="icon" xmlns="http://www.w3.org/2000/svg"><path d="M153.821 358.226L0 274.337v-46.463l153.821-83.414v54.574L46.636 250.523l107.185 53.431v54.272zm26.273 29.358L282.103 115.08h32.227L212.084 387.584h-31.99zm168.749-29.358v-54.272l107.164-52.999-107.164-52.59v-53.927l153.821 83.522v46.183l-153.821 84.083z"/></svg><svg id="logo" viewBox="0 0 410.31 280.82" xmlns="http://www.w3.org/2000/svg"><defs><style>.bcls-2{stroke:#1d1d1b;stroke-miterlimit:10;fill:#47ac34}</style></defs><path d="M409.81 91.71v-44H302.96v-.32h-44v232.93h44V179.18h106.85v-44H302.96V91.71h106.85z"/><path class="bcls-2" d="M232.12 176.5V.5h-44v220h100.11v-44h-56.11z"/><path class="bcls-2" d="M259.27 329.16l46.71.31-73.37-173.82h-59.46L104 328.12l45.34.3 16-40h76.69zM183 244.43l19.73-49.19 20.76 49.19z" transform="translate(-103.27 -109.25)"/></svg><svg viewBox="0 0 117 74" id="next" xmlns="http://www.w3.org/2000/svg"><path d="M116.709 38.678L.592 73.032 1.86.297l114.85 38.381z"/></svg><svg viewBox="0 0 121 128" id="skill-1" xmlns="http://www.w3.org/2000/svg"><path d="M12.569 27l8.087 89.919 36.289 9.682 36.39-9.499L101.43 27H12.569zm72.04 20.471l-.506 5.834L83.88 56H41.31l1.018 12h40.54l-.271 2.231-2.615 28.909-.192 1.69L57 106.964v-.005l-.027.012-22.777-5.916L32.65 84h11.168l.79 8.46 12.386 3.139.006-.234v.012l12.412-2.649L70.708 79H32.153l-2.734-30.836L29.152 45h55.724l-.266 2.471zM20.957 1.627h5.622v5.556h5.144V1.627h5.623v16.822h-5.623v-5.633H26.58v5.633h-5.623V1.627zm23.782 5.579h-4.95V1.627h15.525v5.579H50.36v11.243h-5.623V7.206zm13.039-5.579h5.862l3.607 5.911 3.603-5.911h5.865v16.822h-5.601v-8.338l-3.867 5.981h-.098l-3.87-5.981v8.338h-5.502V1.627zm21.736 0h5.624v11.262h7.907v5.561H79.513V1.627z"/></svg><svg viewBox="0 0 133 133" id="skill-11" xmlns="http://www.w3.org/2000/svg"><path fill-rule="evenodd" clip-rule="evenodd" d="M66.5 1.571c-24.41 0-44.207 19.791-44.207 44.207 0 19.531 12.666 36.102 30.232 41.947 2.209.41 3.02-.96 3.02-2.127 0-1.054-.041-4.537-.06-8.23-12.3 2.674-14.894-5.215-14.894-5.215-2.01-5.11-4.909-6.47-4.909-6.47-4.01-2.743.302-2.687.302-2.687 4.44.312 6.777 4.557 6.777 4.557 3.943 6.758 10.342 4.803 12.864 3.674.398-2.858 1.543-4.81 2.808-5.913-9.82-1.117-20.142-4.908-20.142-21.847 0-4.826 1.727-8.77 4.556-11.866-.46-1.114-1.973-5.61.428-11.7 0 0 3.711-1.186 12.157 4.534 3.527-.98 7.31-1.472 11.066-1.488 3.757.017 7.541.509 11.074 1.488 8.437-5.72 12.145-4.533 12.145-4.533 2.406 6.09.893 10.585.434 11.7 2.835 3.094 4.549 7.039 4.549 11.866 0 16.978-10.342 20.717-20.186 21.81 1.586 1.372 2.999 4.063 2.999 8.188 0 5.914-.05 10.674-.05 12.13 0 1.174.796 2.554 3.036 2.12 17.556-5.852 30.206-22.417 30.206-41.942.002-24.41-19.79-44.203-44.205-44.203z"/><path d="M39.038 65.041c-.1.22-.445.286-.759.135-.322-.145-.5-.444-.397-.665.094-.224.44-.288.762-.137.322.145.505.447.395.667h-.001zm1.79 2c-.211.194-.624.103-.904-.206-.289-.309-.343-.721-.129-.919.216-.195.616-.104.904.205.291.311.348.72.128.918v.001zm1.742 2.543c-.27.189-.714.012-.987-.381-.272-.392-.272-.863.006-1.053.274-.19.71-.019.987.371.272.4.272.873-.006 1.064v-.001zm2.388 2.46c-.242.267-.758.196-1.136-.169-.386-.356-.493-.862-.251-1.13.246-.266.765-.192 1.145.17.384.355.5.862.242 1.128v.001zm3.296 1.428c-.108.347-.605.504-1.105.358-.501-.152-.828-.557-.728-.906.104-.35.605-.513 1.109-.356.499.15.826.55.723.904h.001zm3.616.265c.014.364-.411.667-.937.673-.528.013-.956-.282-.962-.642 0-.368.415-.667.943-.675.526-.01.956.282.956.644zm3.367-.572c.062.355-.302.72-.824.817-.514.096-.987-.124-1.054-.478-.062-.363.309-.727.82-.823.523-.091.991.123 1.057.485v-.001zM25.826 112.533H14.708a.517.517 0 00-.52.519v5.436a.521.521 0 00.52.52h4.336v6.754s-.974.332-3.668.332c-3.175 0-7.613-1.159-7.613-10.918 0-9.76 4.622-11.045 8.96-11.045 3.756 0 5.373.661 6.403.979.322.098.624-.224.624-.511l1.24-5.252a.486.486 0 00-.2-.405c-.419-.3-2.969-1.725-9.412-1.725-7.423 0-15.037 3.156-15.037 18.339 0 15.181 8.718 17.443 16.064 17.443 6.082 0 9.772-2.6 9.772-2.6.152-.083.168-.296.168-.395v-16.953a.518.518 0 00-.52-.52v.002zm56.786-14.02H76.35a.52.52 0 00-.517.523l.002 12.099h-9.759V99.036a.52.52 0 00-.516-.523H59.3a.52.52 0 00-.518.523v32.762a.52.52 0 00.517.522h6.26a.522.522 0 00.368-.154.53.53 0 00.15-.369v-14.013h9.758l-.017 14.013c0 .289.233.523.52.523h6.274a.521.521 0 00.478-.324.518.518 0 00.038-.199V99.035a.517.517 0 00-.516-.522zm-49.009.745c-2.228 0-4.035 1.822-4.035 4.077 0 2.251 1.807 4.078 4.035 4.078 2.23 0 4.037-1.827 4.037-4.078 0-2.255-1.808-4.076-4.037-4.076zm3.072 9.984h-6.24c-.288 0-.543.295-.543.582v21.666c0 .637.397.826.91.826h5.621c.618 0 .77-.303.77-.836v-21.716a.524.524 0 00-.32-.481.52.52 0 00-.198-.04v-.001zm70.247.049h-6.214a.506.506 0 00-.477.324.503.503 0 00-.038.199v16.064s-1.58 1.154-3.819 1.154c-2.24 0-2.833-1.016-2.833-3.209v-14.009a.518.518 0 00-.517-.523H86.72a.518.518 0 00-.517.523v15.069c0 6.515 3.631 8.109 8.626 8.109 4.098 0 7.402-2.265 7.402-2.265s.156 1.194.229 1.335a.548.548 0 00.457.283l4.011-.017a.525.525 0 00.519-.524l-.003-21.993a.52.52 0 00-.519-.521l-.002.001zm16.98-.736c-3.529 0-5.929 1.574-5.929 1.574V99.035a.526.526 0 00-.516-.523h-6.277a.52.52 0 00-.52.523v32.762a.531.531 0 00.151.369.525.525 0 00.369.153h4.355c.198 0 .345-.1.454-.278.108-.177.264-1.511.264-1.511s2.567 2.432 7.428 2.432c5.704 0 8.977-2.893 8.977-12.991 0-10.097-5.226-11.417-8.757-11.417l.001.001zm-2.452 18.458c-2.154-.066-3.616-1.043-3.616-1.043v-10.375s1.442-.884 3.211-1.044c2.237-.2 4.393.476 4.393 5.813 0 5.629-.972 6.739-3.987 6.648l-.001.001zm-66.177-.123c-.273 0-.974.111-1.694.111-2.306 0-3.089-1.072-3.089-2.46v-9.212h4.697a.527.527 0 00.369-.154.519.519 0 00.15-.37v-5.046a.517.517 0 00-.52-.521H50.49l-.007-6.204c0-.235-.12-.353-.393-.353h-6.4c-.248 0-.382.11-.382.348v6.411s-3.208.774-3.424.837a.516.516 0 00-.374.498v4.029a.518.518 0 00.517.523h3.281v9.692c0 7.201 5.05 7.907 8.458 7.907 1.556 0 3.419-.499 3.726-.613.187-.069.294-.262.294-.471l.004-4.431a.53.53 0 00-.52-.522l.003.001z"/></svg><svg viewBox="0 0 32 32" id="skill-2" xmlns="http://www.w3.org/2000/svg"><path d="M5.902 27.201L3.656 2h24.688l-2.249 25.197L15.985 30 5.902 27.201z"/><path d="M16 27.858l8.17-2.265 1.922-21.532H16v23.797z"/><path d="M16 13.191h4.09l.282-3.165H16V6.935h7.75l-.074.829-.759 8.518H16v-3.091zM16.019 21.218l-.014.004-3.442-.93-.22-2.465H9.24l.433 4.853 6.331 1.758.015-.004v-3.216z"/><path d="M19.827 16.151l-.372 4.139-3.447.93v3.216l6.336-1.756.047-.522.537-6.007h-3.101zM16.011 6.935v3.091H8.545l-.062-.695-.141-1.567-.074-.829h7.743zM16 13.191v3.091h-3.399l-.062-.695-.14-1.567-.074-.829H16z"/></svg><svg viewBox="0 0 124 91" id="skill-3" xmlns="http://www.w3.org/2000/svg"><path d="M103.755 6.5h-83.51c-6.287 0-11.388 3.743-11.388 8.357v61.286c0 4.614 5.1 8.357 11.388 8.357h83.51c6.287 0 11.388-3.743 11.388-8.357V14.857c0-4.614-5.101-8.357-11.388-8.357zM66.697 67.333c0 7.591-6.073 11.056-14.922 11.056-7.996 0-12.622-3.03-14.994-6.703l8.137-3.604c1.566 2.037 2.99 3.76 6.43 3.76 3.273 0 5.361-.94 5.361-4.613V42.314h9.988v25.019zm23.63 11.056c-9.276 0-15.279-3.239-18.197-7.487l8.138-3.447c2.135 2.56 4.934 4.457 9.845 4.457 4.128 0 6.785-1.515 6.785-3.621 0-2.507-2.704-3.395-7.283-4.875l-2.491-.784c-7.212-2.246-11.98-5.084-11.98-11.056 0-5.502 5.717-9.68 14.613-9.68 6.359 0 10.914 1.62 14.188 5.867l-7.782 3.657c-1.708-2.246-3.559-3.134-6.43-3.134-2.917 0-4.768 1.358-4.768 3.134 0 2.193 1.85 3.081 6.145 4.457l2.49.783c8.494 2.664 13.263 5.398 13.263 11.526 0 6.581-7.07 10.203-16.536 10.203z"/></svg><svg viewBox="0 0 128 128" id="skill-4" xmlns="http://www.w3.org/2000/svg"><path d="M27.758 20.421c-7.352 10.565-6.437 24.312-.82 35.54l.41.798.264.506.164.291.293.524c.174.307.353.612.536.919l.306.504c.203.326.41.65.622.973l.265.409c.293.437.592.872.9 1.301l.027.033.152.205c.267.368.542.732.82 1.093l.31.393c.249.313.502.623.759.934l.29.346c.345.406.698.812 1.057 1.208l.02.022.042.045c.35.383.71.758 1.075 1.133l.344.347c.282.284.569.563.858.841l.35.334c.388.364.778.722 1.177 1.07l.018.016.205.174c.35.305.708.605 1.068.902l.442.353c.294.235.59.468.89.696l.477.361c.33.243.663.482.999.717l.363.258.1.072c.319.22.646.431.97.642l.42.28c.5.315 1.008.628 1.52.93l.42.237c.377.217.756.431 1.14.639l.63.326.817.424.188.091.334.161c.427.204.858.405 1.293.599l.273.122c.498.218 1 .427 1.508.628l.368.144c.469.182.945.359 1.423.527l.179.062c.524.184 1.054.353 1.587.52l.383.114c.542.164 1.079.358 1.638.462 35.553 6.483 45.88-21.364 45.88-21.364-8.674 11.3-24.07 14.28-38.656 10.962-.553-.125-1.09-.298-1.628-.456l-.406-.124a44.793 44.793 0 01-1.568-.51l-.215-.077a49.537 49.537 0 01-1.382-.513l-.388-.152c-.501-.198-1-.405-1.492-.62l-.298-.133a55.398 55.398 0 01-1.26-.585l-.363-.175c-.327-.159-.65-.328-.974-.495l-.65-.341c-.394-.21-.781-.43-1.166-.654l-.394-.219a58.203 58.203 0 01-1.52-.932l-.41-.273a40.515 40.515 0 01-1.081-.719l-.35-.245a54.203 54.203 0 01-1.021-.738l-.453-.343c-.31-.237-.618-.476-.922-.721l-.411-.33c-.388-.318-.771-.64-1.15-.969l-.125-.105a54.797 54.797 0 01-1.208-1.098l-.34-.328a33.158 33.158 0 01-.868-.851l-.34-.34c-.362-.37-.717-.745-1.065-1.126l-.053-.057a41.973 41.973 0 01-1.08-1.229l-.283-.336a44.66 44.66 0 01-.777-.961l-.285-.355a52.469 52.469 0 01-.898-1.195c-8.098-11.047-11.008-26.283-4.535-38.795m17.08-1.626c-5.315 7.65-5.027 17.893-.88 25.983a33.747 33.747 0 002.352 3.925c.796 1.143 1.68 2.501 2.737 3.418.383.422.784.834 1.193 1.238l.314.311c.397.385.8.764 1.218 1.132l.05.043.012.012c.462.405.939.794 1.423 1.178l.323.252c.486.372.98.738 1.489 1.087l.043.033.68.447.322.213c.363.233.73.459 1.104.676l.156.092c.322.185.648.367.975.545l.347.18.682.354.103.047c.469.23.94.453 1.424.663l.314.13c.386.163.775.323 1.167.473l.5.184c.356.132.712.253 1.072.373l.484.155c.51.158 1.017.359 1.549.448 27.45 4.547 33.787-16.588 33.787-16.588-5.712 8.228-16.775 12.153-28.58 9.089a34.726 34.726 0 01-1.555-.449l-.467-.151a29 29 0 01-1.087-.374l-.491-.183a38.673 38.673 0 01-1.171-.473l-.315-.133a32.78 32.78 0 01-1.432-.666l-.718-.365-.414-.213c-.306-.166-.61-.338-.91-.514l-.216-.123a30.75 30.75 0 01-1.1-.672l-.332-.221-.712-.472a37.364 37.364 0 01-1.484-1.085l-.334-.264c-5.167-4.079-9.263-9.655-11.21-15.977-2.041-6.557-1.601-13.917 1.935-19.891m14.847-.518c-3.134 4.612-3.442 10.341-1.267 15.435 2.293 5.407 6.992 9.648 12.477 11.66l.682.235.3.096c.323.102.644.22.978.282 15.157 2.929 19.268-7.777 20.362-9.354-3.601 5.185-9.653 6.43-17.08 4.627a18.837 18.837 0 01-1.795-.555 22.303 22.303 0 01-2.134-.886 22.19 22.19 0 01-3.741-2.282C71.908 19.084 67.78 9.467 72.117 1.634M66.359 96.295h-4.226a.556.556 0 00-.517.417l-1.5 6.94-1.5 6.94a.554.554 0 01-.516.417h-2.991c-2.96 0-2.617-2.047-2.011-4.851l.018-.085.066-.354.012-.066.135-.72.145-.771.154-.785.682-3.332.683-3.332a.336.336 0 00-.341-.419h-4.337a.55.55 0 00-.514.418l-.933 4.424-.932 4.425-.002.006-.086.412c-1.074 4.903-.79 9.58 5.048 9.727l.17.003h9.163a.554.554 0 00.516-.417l1.976-9.289 1.976-9.29c.049-.23-.103-.417-.338-.418zm-45.256-.049h-4.64a.562.562 0 00-.521.416l-.44 1.942-.44 1.942c-.051.229.098.416.333.416h4.676a.556.556 0 00.518-.417l.425-1.941.425-1.941c.049-.229-.101-.417-.336-.417zm-1.346 6.044H15.08a.563.563 0 00-.521.416l-.657 2.91-.656 2.909-.183.834-.631 2.97-.63 2.971a9.31 9.31 0 01-.225.821s-.874 2.6-2.343 2.57l-.184-.004-1.271-.023h-.001a.558.558 0 00-.524.407l-.485 2.039-.484 2.038c-.055.228.093.416.326.42.833.01 2.699.031 3.828.031 3.669 0 5.604-2.033 6.843-7.883l1.45-6.714 1.362-6.297c.049-.227-.103-.415-.337-.415zm86.117-1.574l-.194-.801-.191-.82-.097-.414c-.38-1.477-1.495-2.328-3.917-2.328l-3.77-.004-3.472-.005h-3.907a.552.552 0 00-.515.417l-.173.816-.204.964-.057.271-1.76 8.24-1.67 7.822c-.05.23-.065.512-.037.626.028.115.479.209.713.209h3.524c.235 0 .532-.042.66-.094s.317-.513.364-.742l.626-3.099.627-3.1v-.005l.085-.413.76-3.56.67-3.144a.555.555 0 01.516-.417l11.089-.005c.235.002.383-.185.33-.414zm14.275-7.24l-.854.003h-3.549a.904.904 0 00-.667.353l-7.849 11.498c-.132.194-.283.166-.335-.062l-.578-2.533a.562.562 0 00-.522-.416h-5.045c-.235 0-.374.184-.31.409l2.261 7.921c.064.226.069.596.011.824l-.985 3.833c-.059.228.085.413.32.413h4.987a.58.58 0 00.532-.413l.986-3.833a2.52 2.52 0 01.363-.755l12.742-16.911c.142-.188.065-.341-.169-.339l-1.339.008zm-40.086 9.919v-.004a.514.514 0 01-.5.441h-6.396c-.222 0-.334-.15-.301-.336l.006-.015-.004.002.003-.021.029-.109c.61-1.624 1.855-2.69 4.194-2.69 2.634-.001 3.148 1.285 2.969 2.732zm-1.877-7.384c-8.211 0-10.157 4.984-11.25 10.015-1.09 5.128-.997 9.921 7.5 9.921h1.03l.257-.001h.06l1.02-.003h.018c2.244-.009 4.495-.026 5.406-.033a.553.553 0 00.509-.42l.344-1.681.067-.327.41-2.006a.335.335 0 00-.341-.418h-7.64c-3.038 0-3.94-.807-3.607-3.181h12.21v.001l.008-.001a.503.503 0 00.445-.315l.029-.106-.001.001c1.813-6.839 1.293-11.445-6.474-11.446zm-38.81 7.358l-.116.409v.001l-.922 3.268-.922 3.267a.596.596 0 01-.543.411h-4.88c-3.702 0-4.604-2.896-3.702-7.166.9-4.368 2.668-7.083 6.312-7.358 4.98-.376 5.976 3.126 4.773 7.168zm3.348 7.105s2.3-5.588 2.823-8.814c.713-4.319-1.45-10.585-9.804-10.585-8.306 0-11.914 5.981-13.29 12.484-1.376 6.55.427 12.293 8.686 12.246l6.516-.024 6.089-.022a.59.59 0 00.534-.414l1.06-4.046c.06-.228-.083-.414-.318-.416l-1.017-.006-1.017-.006c-.2-.001-.313-.131-.29-.302l.028-.095zm41.12-3.741a.28.28 0 11-.56.001.28.28 0 01.56-.001z"/></svg><svg viewBox="0 0 141 141" id="skill-5" xmlns="http://www.w3.org/2000/svg"><path d="M41.194 59.965h-5.556L32.61 75.523h4.935c3.256 0 5.688-.617 7.296-1.855 1.582-1.216 2.662-3.283 3.213-6.151.546-2.754.295-4.706-.71-5.851-1.035-1.124-3.08-1.697-6.151-1.697v-.004zM70.5 33.417C31.553 33.417 0 50.033 0 70.5s31.553 37.083 70.5 37.083S141 90.967 141 70.5s-31.553-37.083-70.5-37.083zM51.337 77.202a14.095 14.095 0 01-5.371 3.23c-1.974.621-4.494.965-7.548.965h-6.957l-1.904 9.87h-8.103l7.23-37.154h15.56c4.683 0 8.102 1.216 10.257 3.67 2.137 2.455 2.802 5.9 1.925 10.307-.317 1.745-.938 3.419-1.784 4.983a16.86 16.86 0 01-3.31 4.129h.005zM75 81.397l3.19-16.449c.366-1.864.229-3.141-.419-3.838-.617-.665-1.974-1.009-4.036-1.009h-6.402l-4.129 21.296H55.15l7.226-37.176h8.032l-1.925 9.892h7.16c4.525 0 7.618.78 9.32 2.34 1.722 1.586 2.224 4.128 1.563 7.645L83.145 81.4 75 81.397zm44.609-13.307a16.248 16.248 0 01-1.785 4.983c-.828 1.485-1.925 2.869-3.283 4.129-1.537 1.445-3.37 2.569-5.393 3.23-1.974.621-4.499.965-7.548.965h-6.93l-1.926 9.87H84.64l7.23-37.154h15.559c4.684 0 8.103 1.216 10.258 3.697 2.137 2.432 2.802 5.873 1.925 10.28h-.004zm-15.233-8.125h-5.534l-3.027 15.558h4.913c3.278 0 5.71-.617 7.297-1.855 1.604-1.216 2.683-3.283 3.238-6.151.547-2.754.295-4.706-.74-5.851-1.005-1.124-3.071-1.697-6.147-1.697v-.004z"/></svg><svg viewBox="0 0 104 104" id="skill-6" xmlns="http://www.w3.org/2000/svg"><g clip-path="url(#ja)"><path fill-rule="evenodd" clip-rule="evenodd" d="M52.912 56.546L37.308 101.88A51.968 51.968 0 0052 104a51.944 51.944 0 0017.268-2.948 4.906 4.906 0 01-.37-.715L52.912 56.546zM97.63 27.05c.224 1.658.351 3.432.351 5.347 0 5.274-.988 11.206-3.955 18.625l-15.884 45.92C93.603 87.931 104 71.18 104 51.998a51.75 51.75 0 00-6.37-24.947zM87.103 49.375c0-6.429-2.31-10.878-4.286-14.34-2.636-4.286-5.11-7.913-5.11-12.196 0-4.781 3.624-9.23 8.733-9.23.231 0 .449.029.673.042C77.863 5.174 65.535 0 51.999 0 33.831 0 17.85 9.321 8.552 23.436c1.222.039 2.372.061 3.347.061 5.437 0 13.859-.66 13.859-.66 2.801-.165 3.133 3.956.331 4.284 0 0-2.817.332-5.95.498l18.935 56.323 11.381-34.13-8.1-22.193a95.681 95.681 0 01-5.456-.498c-2.802-.165-2.473-4.449.331-4.283 0 0 8.587.66 13.697.66 5.437 0 13.858-.66 13.858-.66 2.805-.166 3.133 3.955.332 4.283 0 0-2.821.332-5.95.498l18.792 55.894 5.19-17.33c2.242-7.195 3.954-12.359 3.954-16.808zM0 51.998c0 20.582 11.96 38.37 29.306 46.797L4.501 30.836A51.827 51.827 0 000 51.998z"/></g><defs><clipPath id="ja"><path d="M0 0h104v104H0z"/></clipPath></defs></svg><svg viewBox="0 0 114 114" id="skill-7" xmlns="http://www.w3.org/2000/svg"><path d="M86.074 1.655c-9.61.36-21.293 12.428-17.295 23.686 4.231 11.17 6.942 19.114 7.508 31.574 10.156-10.218 19.487-21.311 20.24-34.184.247-10.446-4.698-18.143-10.453-21.076zm-11.25 57.37c-4.037-6.093-11.363-9.843-14.09-10.994-1.442 2.579-3.336 5.38-5.803 8.446-5.186 6.537-10.416 17.258-8.806 29.825 21.422-2.364 28.111-18.443 28.698-27.278zM38.028 38.573c7.18 2.127 12.21 3.435 17.655 5.413 7.961 2.893 14.211 6.586 19.162 12.96C73.928 45.98 69.411 33.414 62.2 23.61 51.91 9.63 34.091 2.915 17.535 9.467c-.76 9.833 3.446 24.453 20.495 29.107zm-12.62 68.174V94.43a.388.388 0 00-.388-.388h-1.782a.389.389 0 00-.387.388v12.317c0 .213.174.407.387.407h1.782c.214 0 .388-.194.388-.407zm-9.414.369V94.124c-1 .02-2.537.673-2.556 2.042v8.897c-.542.077-1.396.155-1.86.155-1.666 0-2.073-1.181-2.073-2.771v-6.352c-.104-1.55-1.852-2.001-2.557-1.955v8.307c0 3.023 1.51 4.867 4.63 4.867.463 0 1.453-.136 1.86-.218v.158c.394 2.548-2.696 1.587-4.37 1.414-1.234 0-2.076 1.016-2.3 2.161.717.233 3.08.532 4.72.661 2.965-.001 4.506-1.622 4.506-4.374zm4.678-.369V94.43a.388.388 0 00-.387-.388h-1.782a.39.39 0 00-.388.388v12.317c0 .213.173.407.388.407h1.782c.214 0 .387-.194.387-.407zM19.395 90.57a1.333 1.333 0 11-.003 2.667 1.333 1.333 0 01.003-2.667zm4.748 0a1.333 1.333 0 11-.003 2.667 1.333 1.333 0 01.003-2.667zm9.246 3.016v-.663c0-.176-.098-.294-.39-.332a12.568 12.568 0 00-1.758-.116c-1.834 0-3.005.623-3.005 2.712v11.708c0 .215.176.39.391.39h.936a.39.39 0 00.39-.39v-8.976h3.045c.213 0 .37-.157.37-.351v-.664c0-.215-.157-.351-.37-.351h-3.044v-1.366c0-1.152.213-1.328 1.286-1.328h1.737c.275 0 .412-.098.412-.273zm6.231 4.019v-.897c0-.273-.156-.293-.408-.293-1.62 0-2.967.058-4.08.546-.214.097-.351.235-.351.448v9.484c0 .215.156.39.351.39h1.016c.213 0 .35-.195.35-.39v-8.78c.742-.157 1.387-.196 2.714-.196.37.001.408-.097.408-.313zm8.437 8.917v-9.21c0-.273-.058-.37-.41-.448-1.033-.253-2.42-.448-3.59-.448-2.927 0-4.253 1.892-4.253 4.82v1.365c0 2.926 1.347 4.823 4.253 4.823 1.19 0 2.556-.199 3.59-.452.352-.078.41-.196.41-.45zm-1.718-.741c-.545.097-1.463.195-2.282.195-1.932 0-2.538-1.327-2.538-3.376v-1.365c0-2.07.606-3.377 2.538-3.377.819 0 1.756.098 2.282.195v7.728zm15.892 1.113V99.83c0-2.01-1.132-3.415-3.473-3.415h-.449c-1.17 0-1.951.195-2.536.702-.606-.546-1.367-.702-2.538-.702h-.448c-2.342 0-3.473 1.405-3.473 3.415v7.064c0 .215.135.39.352.39h1.015c.214 0 .35-.175.35-.39V99.83c0-1.679.743-1.912 1.758-1.912h.449c1.248 0 1.678.215 1.678 1.327v7.649c0 .215.136.39.352.39h1.014c.215 0 .352-.175.352-.39v-7.649c0-1.112.43-1.327 1.679-1.327h.449c1.033 0 1.756.234 1.756 1.912v7.064c0 .215.136.39.352.39h1.015c.21 0 .346-.175.346-.39zm9.53-4.859v-1.053c0-2.772-1.444-4.566-4.293-4.566-2.79 0-4.333 1.775-4.333 4.566v1.755c0 3.63 2.186 4.687 4.43 4.687 1.308 0 2.381-.117 3.493-.334.313-.059.39-.195.39-.449v-.664c0-.195-.156-.273-.312-.273h-.097c-.898.136-2.342.214-3.474.214-1.795 0-2.712-.858-2.712-3.18v-.272h6.537c.234-.001.37-.177.37-.431zm-1.737-.878h-5.172v-.175c0-2.108.938-3.064 2.615-3.064 1.718 0 2.557.859 2.557 3.064v.175zm15.93 1.892v-6.107a.392.392 0 00-.39-.39h-.917a.391.391 0 00-.39.39v6.107c0 2.128-.8 2.908-2.4 2.908-.49 0-.995-.117-1.562-.254v-8.761a.391.391 0 00-.39-.39h-.956a.391.391 0 00-.39.39v8.761c-.565.136-1.073.254-1.561.254-1.639 0-2.4-.78-2.4-2.908v-6.107a.391.391 0 00-.39-.39h-.918a.391.391 0 00-.39.39v6.107c0 3.455 1.931 4.375 3.94 4.375.977 0 1.776-.178 2.597-.472.819.294 1.6.472 2.575.472 2.01 0 3.942-.92 3.942-4.375zm9.978-.389v-1.483c0-2.869-1.484-4.76-4.353-4.76-2.867 0-4.33 1.891-4.33 4.76v1.483c0 2.867 1.463 4.764 4.33 4.764 2.87 0 4.353-1.897 4.353-4.764zm-1.718 0c0 2.01-.82 3.258-2.635 3.258-1.833 0-2.614-1.268-2.614-3.258v-1.483c0-2.01.8-3.259 2.614-3.259 1.836 0 2.635 1.268 2.635 3.259v1.483zm7.852-5.055v-.897c0-.273-.156-.293-.409-.293-1.62 0-2.967.058-4.08.546-.214.097-.351.235-.351.448v9.484c0 .215.157.39.352.39h1.015c.215 0 .352-.195.352-.39v-8.78c.742-.157 1.386-.196 2.713-.196.369.001.408-.097.408-.313zm8.729 9.425c0-.058-.02-.136-.059-.175l-4.331-5.23 4.293-4.644a.319.319 0 00.097-.215c0-.116-.097-.214-.293-.214h-1.366c-.195 0-.273.039-.39.175l-3.903 4.391V93a.39.39 0 00-.39-.39h-.937a.392.392 0 00-.391.39v13.894c0 .215.176.39.391.39h.937c.214 0 .39-.175.39-.39v-4.664l3.884 4.8c.155.195.234.254.448.254h1.405c.137 0 .215-.117.215-.254z"/></svg><svg viewBox="0 0 159 105" id="skill-8" xmlns="http://www.w3.org/2000/svg"><path d="M2.486 85.366h5.103V65.214l7.9 17.568c.931 2.127 2.207 2.878 4.71 2.878s3.73-.751 4.662-2.878l7.9-17.568v20.152h5.103V65.247c0-1.962-.785-2.913-2.404-3.402-3.877-1.21-6.479-.163-7.656 2.455L20.05 81.638l-7.506-17.34c-1.13-2.616-3.779-3.663-7.656-2.454-1.62.49-2.405 1.44-2.405 3.402v20.12h.002zm39.623-16.404h5.102v11.102c-.048.603.193 2.019 2.988 2.063 1.426.023 11.009 0 11.098 0v-13.22h5.114c.024 0-.005 18.029-.005 18.103.027 4.447-5.517 5.413-8.073 5.487H42.22v-3.433c.028 0 16.103.004 16.143-.001 3.285-.347 2.896-1.98 2.895-2.528v-1.34H50.412c-5.046-.045-8.26-2.248-8.302-4.782-.002-.232.11-11.34-.001-11.451zM70.345 85.366h14.673c1.718 0 3.387-.36 4.712-.98 2.207-1.014 3.286-2.388 3.286-4.189v-3.729c0-1.472-1.226-2.847-3.63-3.761-1.276-.492-2.848-.752-4.37-.752h-6.183c-2.06 0-3.042-.621-3.287-1.995-.048-.164-.048-.294-.048-.458v-2.323c0-.13 0-.262.048-.425.245-1.047.785-1.342 2.601-1.505l.491-.033h14.575v-3.4H78.884c-2.06 0-3.14.13-4.122.424-3.042.949-4.368 2.453-4.368 5.07v2.977c0 2.29 2.602 4.253 6.968 4.712.492.03.982.065 1.472.065h5.3c.197 0 .393 0 .541.031 1.62.13 2.306.427 2.797 1.014.295.294.392.59.392.916v2.977c0 .359-.245.817-.736 1.21-.44.392-1.177.655-2.159.72l-.54.033H70.345v3.4zm54.509-5.92c0 3.499 2.601 5.461 7.85 5.855.491.032.982.065 1.472.065h13.299v-3.401h-13.396c-2.993 0-4.121-.753-4.121-2.553v-17.6h-5.103v17.633h-.001zm-28.58.176v-12.13c0-3.08 2.163-4.95 6.441-5.54a9.712 9.712 0 011.377-.098h9.688c.491 0 .934.032 1.424.098 4.278.59 6.444 2.458 6.444 5.54v12.13c0 2.502-.92 3.838-3.038 4.71l5.029 4.538h-5.927l-4.067-3.672-4.094.26h-5.459c-.934 0-1.917-.13-2.999-.426-3.246-.885-4.82-2.59-4.82-5.41zm5.507-.294c0 .163.049.329.098.525.295 1.41 1.624 2.196 3.639 2.196h4.636l-4.259-3.844h5.927l3.713 3.353c.685-.366 1.135-.923 1.293-1.64.048-.163.048-.327.048-.491V67.79c0-.13 0-.296-.048-.46-.296-1.311-1.624-2.064-3.59-2.064h-7.721c-2.261 0-3.737.984-3.737 2.524v11.537h.001zM151.964 56.167c-3.136-.086-5.532.206-7.582 1.07-.583.245-1.511.252-1.605.98.319.337.369.838.624 1.25.489.792 1.315 1.852 2.052 2.408.803.607 1.633 1.258 2.498 1.785 1.534.936 3.248 1.47 4.727 2.407.871.554 1.736 1.25 2.587 1.875.421.307.702.787 1.249.98v-.088c-.287-.366-.361-.868-.624-1.25l-1.161-1.16c-1.134-1.506-2.572-2.826-4.104-3.924-1.22-.876-3.95-2.06-4.459-3.48l-.09-.088c.865-.098 1.878-.411 2.676-.625 1.341-.36 2.54-.267 3.925-.625l1.873-.536v-.355c-.699-.718-1.199-1.67-1.962-2.32-1.996-1.7-4.178-3.4-6.422-4.818-1.245-.785-2.784-1.296-4.104-1.962-.443-.224-1.223-.34-1.517-.714-.695-.883-1.071-2.002-1.606-3.032a115.258 115.258 0 01-3.211-6.78c-.676-1.546-1.118-3.072-1.962-4.46-4.051-6.659-8.411-10.678-15.164-14.628-1.438-.841-3.168-1.172-4.995-1.605l-2.944-.18c-.598-.249-1.221-.982-1.784-1.337-2.238-1.414-7.977-4.488-9.635-.445-1.045 2.552 1.566 5.041 2.499 6.334.654.907 1.494 1.923 1.962 2.943.308.67.36 1.343.625 2.052.647 1.747 1.212 3.648 2.051 5.262.423.817.892 1.678 1.427 2.409.328.447.892.645.98 1.337-.55.77-.582 1.968-.892 2.943-1.393 4.396-.868 9.86 1.161 13.114.622 1 2.088 3.141 4.103 2.319 1.762-.718 1.37-2.943 1.874-4.907.114-.443.043-.771.267-1.07v.09l1.606 3.211c1.189 1.915 3.297 3.913 5.084 5.263.927.7 1.658 1.91 2.855 2.32v-.091h-.088c-.234-.361-.595-.51-.893-.803-.698-.684-1.475-1.534-2.051-2.319-1.626-2.206-3.062-4.622-4.371-7.136-.625-1.2-1.168-2.524-1.695-3.746-.203-.471-.201-1.184-.623-1.426-.579.894-1.428 1.618-1.875 2.675-.713 1.69-.805 3.75-1.069 5.887l-.179.088c-1.244-.3-1.68-1.579-2.142-2.676-1.167-2.773-1.385-7.242-.356-10.435.266-.828 1.467-3.43.98-4.194-.232-.761-.999-1.201-1.426-1.785a13.875 13.875 0 01-1.427-2.498c-.957-2.163-1.403-4.591-2.408-6.779-.482-1.045-1.294-2.102-1.962-3.032-.74-1.03-1.568-1.788-2.142-3.033-.204-.442-.481-1.152-.179-1.606.096-.307.234-.435.537-.536.517-.398 1.957.133 2.497.357 1.431.595 2.624 1.16 3.837 1.963.581.386 1.169 1.131 1.873 1.337h.802c1.256.289 2.664.088 3.836.445 2.075.631 3.933 1.611 5.62 2.677 5.141 3.247 9.344 7.868 12.221 13.38.462.889.663 1.735 1.069 2.676.822 1.898 1.858 3.852 2.676 5.71.816 1.852 1.612 3.721 2.766 5.263.606.81 2.949 1.244 4.014 1.694.746.316 1.968.645 2.675 1.07 1.351.815 2.66 1.785 3.926 2.677.632.45 2.578 1.427 2.675 2.233zm-39.873-33.985c-.653-.012-1.116.072-1.606.179v.088h.09c.311.642.862 1.055 1.248 1.606l.893 1.873.088-.088c.553-.389.805-1.011.803-1.962-.223-.234-.255-.526-.446-.803-.254-.373-.748-.581-1.07-.893z"/></svg><svg viewBox="0 0 128 128" id="skill-9" xmlns="http://www.w3.org/2000/svg"><path d="M53.239 19.185a7.5 7.5 0 01-7.496 7.496 7.5 7.5 0 01-7.497-7.496 7.5 7.5 0 017.496-7.497 7.5 7.5 0 017.497 7.497z"/><path d="M63.194 4.272c-4.937.02-9.665.45-13.823 1.17-12.24 2.148-14.468 6.616-14.468 14.877v10.915h28.93v3.633H24.049c-8.416 0-15.772 4.998-18.076 14.503-2.654 10.895-2.794 17.706 0 29.066 2.049 8.47 6.952 14.503 15.362 14.503h8.511V78.456c0-9.43 8.276-17.707 18.096-17.707h30.286c8.041 0 15.657-6.561 15.657-14.543V20.38c0-7.751-7.79-13.588-15.657-14.878-4.958-.82-10.11-1.19-15.043-1.17m-15.637 8.706c2.988 0 5.427 2.46 5.427 5.488a5.426 5.426 0 01-5.427 5.427c-3.009 0-5.448-2.419-5.448-5.427 0-3.024 2.42-5.487 5.448-5.487zM88.242 109.141a7.499 7.499 0 01-7.496 7.496c-4.158 0-7.516-3.358-7.516-7.496s3.358-7.496 7.516-7.496a7.499 7.499 0 017.496 7.496z"/><path d="M98.002 34.857v12.709c0 9.84-8.45 16.967-18.076 16.967H48.181c-7.906 0-14.468 7.886-14.468 15.717v27.252c0 7.751 6.812 12.299 14.468 14.523 9.156 2.654 19.131 3.163 30.086 0 7.281-2.089 14.468-6.287 14.468-14.523V96.587H63.844v-3.633h43.379c8.396 0 11.539-5.817 14.468-14.503 3.023-8.96 2.869-17.592 0-29.066-2.089-8.296-6.052-14.503-14.468-14.503m-27.117 68.992a5.425 5.425 0 015.427 5.427c0 3.009-2.418 5.487-5.427 5.487-3.009 0-5.447-2.478-5.447-5.487s2.438-5.427 5.447-5.427z"/></svg><svg viewBox="0 0 50 50" id="telegram" xmlns="http://www.w3.org/2000/svg"><path d="M50 25c0 13.807-11.193 25-25 25S0 38.807 0 25 11.193 0 25 0s25 11.193 25 25zm-33.259-2.29c-2.504 1.093-5.077 2.217-7.43 3.513-1.229.9.404 1.536 1.936 2.133.244.095.485.188.711.282.189.058.38.12.575.181 1.703.543 3.603 1.148 5.257.238 2.718-1.561 5.282-3.366 7.844-5.169.84-.59 1.679-1.181 2.523-1.763l.133-.086c.72-.466 2.338-1.515 1.74-.07-1.416 1.547-2.932 2.917-4.456 4.294-1.027.929-2.057 1.86-3.064 2.852-.876.712-1.786 2.144-.805 3.141a445.21 445.21 0 006.85 4.67c.747.502 1.494 1.004 2.239 1.507 1.262 1.008 3.236.193 3.513-1.383l.372-2.173c.685-4.005 1.37-8.012 1.975-12.03.082-.63.176-1.26.269-1.89.226-1.529.453-3.059.523-4.595-.182-1.534-2.041-1.197-3.076-.852-5.318 2.024-10.582 4.197-15.826 6.41-.594.262-1.197.525-1.803.79z"/></svg><svg viewBox="0 0 50 50" id="vk" xmlns="http://www.w3.org/2000/svg"><rect width="18.789" height="18.789" x="141.656" y="14.524" rx=".115" ry=".098" transform="translate(-.093 -.03)"/><path d="M25 0C11.193 0 0 11.193 0 25s11.193 25 25 25 25-11.193 25-25S38.807 0 25 0zm-2.484 17.32c.4-.006.825-.004 1.265 0 1.372.014 1.766.1 2.303.229 1.617.39 1.068 1.899 1.068 5.515 0 1.158-.208 2.788.627 3.329.36.231 1.238.035 3.436-3.698 1.042-1.768 1.824-3.85 1.824-3.85s.17-.37.436-.529c.271-.162.636-.113.636-.113l4.936-.03s1.484-.176 1.724.493c.252.703-.555 2.344-2.572 5.031-3.31 4.413-3.678 4-.93 6.551 2.627 2.438 3.171 3.624 3.26 3.772 1.088 1.803-1.207 1.945-1.207 1.945l-4.383.06s-.941.188-2.181-.664c-1.64-1.125-3.186-4.051-4.39-3.67-1.223.388-1.184 3.02-1.184 3.02s.009.564-.27.863c-.303.326-.896.39-.896.39h-1.961s-4.33.261-8.143-3.708c-4.158-4.33-7.83-12.92-7.83-12.92s-.212-.564.018-.836c.258-.306.962-.326.962-.326l4.692-.031s.441.074.758.306c.26.192.406.551.406.551s.758 1.916 1.762 3.65c1.96 3.386 2.873 4.127 3.539 3.764.969-.529.677-4.785.677-4.785s.018-1.546-.488-2.234c-.392-.534-1.13-.69-1.457-.733-.264-.035.171-.649.733-.924.633-.31 1.628-.4 2.83-.418z"/></svg><svg viewBox="0 0 50 50" id="what" xmlns="http://www.w3.org/2000/svg"><path d="M23.788.029C10.583.658.162 11.655.202 24.875a24.69 24.69 0 002.7 11.185L.268 48.84a.965.965 0 001.167 1.133l12.523-2.966a24.682 24.682 0 0010.655 2.586c13.497.206 24.751-10.51 25.172-24.002C50.236 11.129 38.3-.662 23.788.029zM38.73 38.528A19.29 19.29 0 0125 44.215a19.21 19.21 0 01-8.642-2.025l-1.744-.869-7.677 1.82 1.616-7.846-.86-1.683a19.2 19.2 0 01-2.11-8.814 19.29 19.29 0 015.687-13.73A19.452 19.452 0 0125 5.381a19.29 19.29 0 0113.73 5.687 19.29 19.29 0 015.687 13.73c0 5.14-2.053 10.095-5.687 13.73z"/><path d="M37.035 30.176l-4.803-1.38a1.79 1.79 0 00-1.772.467l-1.175 1.197a1.75 1.75 0 01-1.902.402c-2.272-.92-7.052-5.17-8.273-7.296a1.75 1.75 0 01.139-1.939l1.025-1.327a1.79 1.79 0 00.221-1.818l-2.02-4.571a1.791 1.791 0 00-2.798-.64c-1.34 1.133-2.931 2.856-3.124 4.765-.341 3.366 1.102 7.608 6.56 12.702 6.305 5.885 11.355 6.663 14.642 5.866 1.865-.451 3.355-2.262 4.296-3.745a1.791 1.791 0 00-1.016-2.683z"/></svg></svg>