<svg id="res" xmlns="http://www.w3.org/2000/svg" viewBox="0 0 409.08 279.82"><defs><style>.cls-1{fill:#2a7832;}</style></defs><polygon class="cls-1" points="409.07 91.21 409.07 47.21 302.22 47.21 302.22 46.89 258.22 46.89 258.22 279.82 302.22 279.82 302.22 178.68 409.07 178.68 409.07 134.68 302.22 134.68 302.22 91.21 409.07 91.21"/><polygon class="cls-1" points="231.38 176 231.38 0 187.38 0 187.38 220 196.48 220 231.38 220 287.49 220 287.49 176 231.38 176"/><path class="cls-1" d="M259.27,329.16l46.71.31L232.61,155.65H173.15L104,328.12l45.34.3,16-40h76.69ZM183,244.43l19.73-49.19,20.76,49.19Z" transform="translate(-104.01 -109.75)"/></svg>